<svg preserveAspectRatio="none" width="100%" height="100%" overflow="visible" style="display: block;" viewBox="0 0 24 24" fill="none" xmlns="http://www.w3.org/2000/svg">
<g id="Frame 195">
<path id="Union" d="M14.4878 9.0511C14.5526 9.26061 14.7463 9.40348 14.9656 9.40348H21.5218C22.0001 9.40348 22.2054 10.0105 21.8253 10.3008L16.4784 14.3851C16.3119 14.5123 16.2424 14.7299 16.3042 14.9301L18.3368 21.5055C18.4806 21.9706 17.9425 22.346 17.5556 22.0505L12.3036 18.0386C12.1244 17.9018 11.8757 17.9018 11.6965 18.0386L6.44425 22.0507C6.0574 22.3462 5.5193 21.9708 5.66302 21.5057L7.69494 14.9301C7.7568 14.7299 7.68727 14.5123 7.52077 14.3851L2.1746 10.3008C1.79456 10.0105 1.99988 9.40348 2.47814 9.40348H9.03455C9.25383 9.40348 9.44752 9.26061 9.51226 9.0511L11.5223 2.54613C11.6675 2.07628 12.3326 2.07628 12.4778 2.54613L14.4878 9.0511Z" fill="var(--fill-0, #FF3300)"/>
</g>
</svg>
