<svg preserveAspectRatio="none" width="100%" height="100%" overflow="visible" style="display: block;" viewBox="0 0 24 24" fill="none" xmlns="http://www.w3.org/2000/svg">
<g id="notebook-02">
<path id="Vector" d="M22 14V10C22 6.22876 22 4.34315 20.8284 3.17157C19.6569 2 17.7712 2 14 2H12C8.22876 2 6.34315 2 5.17157 3.17157C4 4.34315 4 6.22876 4 10V14C4 17.7712 4 19.6569 5.17157 20.8284C6.34315 22 8.22876 22 12 22H14C17.7712 22 19.6569 22 20.8284 20.8284C22 19.6569 22 17.7712 22 14Z" stroke="var(--stroke-0, black)" stroke-width="1.5"/>
<path id="Vector_2" d="M5 6H2M5 12H2M5 18H2" stroke="var(--stroke-0, black)" stroke-width="1.5" stroke-linecap="round" stroke-linejoin="round"/>
<path id="Vector_3" d="M17.5 7H13.5M15.5 11H13.5" stroke="var(--stroke-0, black)" stroke-width="1.5" stroke-linecap="round" stroke-linejoin="round"/>
<path id="Vector_4" d="M9 22V2" stroke="var(--stroke-0, black)" stroke-width="1.5" stroke-linecap="round" stroke-linejoin="round"/>
</g>
</svg>
