<svg preserveAspectRatio="none" width="100%" height="100%" overflow="visible" style="display: block;" viewBox="0 0 20 20" fill="none" xmlns="http://www.w3.org/2000/svg">
<path id="Union" d="M9.59086 0.288121C9.72817 -0.0960262 10.2719 -0.0960544 10.4092 0.288121L12.7871 6.95023C12.831 7.0728 12.9273 7.16915 13.0498 7.21293L19.712 9.59086C20.096 9.72821 20.096 10.2719 19.712 10.4092L13.0498 12.7871C12.9272 12.8309 12.8309 12.9272 12.7871 13.0498L10.4092 19.7119C10.2719 20.096 9.72822 20.096 9.59086 19.7119L7.21293 13.0498C7.16915 12.9272 7.0728 12.831 6.95023 12.7871L0.288124 10.4092C-0.0960535 10.2719 -0.0960294 9.72816 0.288124 9.59086L6.95023 7.21293C7.07279 7.16912 7.16913 7.07278 7.21293 6.95023L9.59086 0.288121Z" fill="var(--fill-0, #FF3300)"/>
</svg>
