<svg preserveAspectRatio="none" width="100%" height="100%" overflow="visible" style="display: block;" viewBox="0 0 32 32" fill="none" xmlns="http://www.w3.org/2000/svg">
<g id="Frame 235">
<path id="Vector" d="M17.7276 7.44418L19.4874 10.9929C19.7274 11.4869 20.3673 11.9607 20.9073 12.0514L24.0969 12.5857C26.1367 12.9285 26.6167 14.4206 25.1468 15.8925L22.6671 18.3927C22.2471 18.8161 22.0172 19.6327 22.1471 20.2175L22.8571 23.3125C23.417 25.7623 22.1271 26.71 19.9774 25.4296L16.9877 23.6452C16.4478 23.3226 15.5579 23.3226 15.0079 23.6452L12.0183 25.4296C9.8785 26.71 8.57865 25.7522 9.13859 23.3125L9.84851 20.2175C9.97849 19.6327 9.74852 18.8161 9.32856 18.3927L6.84884 15.8925C5.389 14.4206 5.85895 12.9285 7.89872 12.5857L11.0884 12.0514C11.6183 11.9607 12.2582 11.4869 12.4982 10.9929L14.258 7.44418C15.2179 5.51861 16.7777 5.51861 17.7276 7.44418Z" fill="var(--fill-0, #FF3300)"/>
</g>
</svg>
